<mxfile host="app.diagrams.net" modified="2024-02-29T18:15:32.152Z" agent="Mozilla/5.0 (Windows NT 10.0; Win64; x64) AppleWebKit/537.36 (KHTML, like Gecko) Chrome/121.0.0.0 Safari/537.36" etag="j4Z7x-vdxGx3gUxQwSnh" version="24.0.0" type="device">
  <diagram name="Página-1" id="jvocsEG8U9cdLECFx7wi">
    <mxGraphModel dx="1062" dy="577" grid="1" gridSize="10" guides="1" tooltips="1" connect="1" arrows="1" fold="1" page="1" pageScale="1" pageWidth="827" pageHeight="1169" math="0" shadow="0">
      <root>
        <mxCell id="0" />
        <mxCell id="1" parent="0" />
        <mxCell id="HPwKVr45v9yQFBitb5Tv-1" value="Encomenda" style="rounded=0;whiteSpace=wrap;html=1;" vertex="1" parent="1">
          <mxGeometry x="580" y="190" width="120" height="60" as="geometry" />
        </mxCell>
        <mxCell id="HPwKVr45v9yQFBitb5Tv-2" value="&lt;u&gt;Número&amp;nbsp;&lt;/u&gt;" style="ellipse;whiteSpace=wrap;html=1;" vertex="1" parent="1">
          <mxGeometry x="770" y="100" width="70" height="30" as="geometry" />
        </mxCell>
        <mxCell id="HPwKVr45v9yQFBitb5Tv-3" value="" style="endArrow=none;html=1;rounded=0;entryX=0;entryY=1;entryDx=0;entryDy=0;exitX=1;exitY=0;exitDx=0;exitDy=0;" edge="1" parent="1" source="HPwKVr45v9yQFBitb5Tv-1" target="HPwKVr45v9yQFBitb5Tv-2">
          <mxGeometry width="50" height="50" relative="1" as="geometry">
            <mxPoint x="630" y="330" as="sourcePoint" />
            <mxPoint x="680" y="280" as="targetPoint" />
          </mxGeometry>
        </mxCell>
        <mxCell id="HPwKVr45v9yQFBitb5Tv-4" value="Data de realização da Encomenda" style="ellipse;whiteSpace=wrap;html=1;" vertex="1" parent="1">
          <mxGeometry x="747.5" y="187.5" width="130" height="65" as="geometry" />
        </mxCell>
        <mxCell id="HPwKVr45v9yQFBitb5Tv-5" value="Fornecedor Único" style="ellipse;whiteSpace=wrap;html=1;" vertex="1" parent="1">
          <mxGeometry x="747.5" y="280" width="105" height="40" as="geometry" />
        </mxCell>
        <mxCell id="HPwKVr45v9yQFBitb5Tv-6" value="" style="endArrow=none;html=1;rounded=0;entryX=1;entryY=1;entryDx=0;entryDy=0;exitX=0;exitY=0;exitDx=0;exitDy=0;" edge="1" parent="1" source="HPwKVr45v9yQFBitb5Tv-5" target="HPwKVr45v9yQFBitb5Tv-1">
          <mxGeometry width="50" height="50" relative="1" as="geometry">
            <mxPoint x="700" y="330" as="sourcePoint" />
            <mxPoint x="750" y="280" as="targetPoint" />
          </mxGeometry>
        </mxCell>
        <mxCell id="HPwKVr45v9yQFBitb5Tv-8" value="" style="endArrow=none;html=1;rounded=0;entryX=1;entryY=0.5;entryDx=0;entryDy=0;exitX=0;exitY=0.5;exitDx=0;exitDy=0;" edge="1" parent="1" source="HPwKVr45v9yQFBitb5Tv-4" target="HPwKVr45v9yQFBitb5Tv-1">
          <mxGeometry width="50" height="50" relative="1" as="geometry">
            <mxPoint x="700" y="330" as="sourcePoint" />
            <mxPoint x="750" y="280" as="targetPoint" />
          </mxGeometry>
        </mxCell>
        <mxCell id="HPwKVr45v9yQFBitb5Tv-10" value="" style="endArrow=none;html=1;rounded=0;entryX=0.5;entryY=1;entryDx=0;entryDy=0;exitX=0.5;exitY=0;exitDx=0;exitDy=0;" edge="1" parent="1" source="HPwKVr45v9yQFBitb5Tv-11" target="HPwKVr45v9yQFBitb5Tv-1">
          <mxGeometry width="50" height="50" relative="1" as="geometry">
            <mxPoint x="640" y="400" as="sourcePoint" />
            <mxPoint x="680" y="280" as="targetPoint" />
          </mxGeometry>
        </mxCell>
        <mxCell id="HPwKVr45v9yQFBitb5Tv-11" value="Tem" style="rhombus;whiteSpace=wrap;html=1;" vertex="1" parent="1">
          <mxGeometry x="600" y="330" width="80" height="80" as="geometry" />
        </mxCell>
        <mxCell id="HPwKVr45v9yQFBitb5Tv-12" value="" style="endArrow=none;html=1;rounded=0;entryX=0.5;entryY=1;entryDx=0;entryDy=0;" edge="1" parent="1" target="HPwKVr45v9yQFBitb5Tv-11">
          <mxGeometry width="50" height="50" relative="1" as="geometry">
            <mxPoint x="640" y="520" as="sourcePoint" />
            <mxPoint x="630" y="380" as="targetPoint" />
          </mxGeometry>
        </mxCell>
        <mxCell id="HPwKVr45v9yQFBitb5Tv-13" value="Fornecedor" style="rounded=0;whiteSpace=wrap;html=1;" vertex="1" parent="1">
          <mxGeometry x="580" y="520" width="120" height="60" as="geometry" />
        </mxCell>
        <mxCell id="HPwKVr45v9yQFBitb5Tv-14" value="Produto" style="rounded=0;whiteSpace=wrap;html=1;" vertex="1" parent="1">
          <mxGeometry x="280" y="190" width="120" height="60" as="geometry" />
        </mxCell>
        <mxCell id="HPwKVr45v9yQFBitb5Tv-17" value="&lt;u&gt;Código&lt;/u&gt;" style="ellipse;whiteSpace=wrap;html=1;" vertex="1" parent="1">
          <mxGeometry x="230" y="100" width="60" height="30" as="geometry" />
        </mxCell>
        <mxCell id="HPwKVr45v9yQFBitb5Tv-18" value="Nome" style="ellipse;whiteSpace=wrap;html=1;" vertex="1" parent="1">
          <mxGeometry x="140" y="130" width="60" height="35" as="geometry" />
        </mxCell>
        <mxCell id="HPwKVr45v9yQFBitb5Tv-19" value="Preço" style="ellipse;whiteSpace=wrap;html=1;" vertex="1" parent="1">
          <mxGeometry x="130" y="205" width="50" height="30" as="geometry" />
        </mxCell>
        <mxCell id="HPwKVr45v9yQFBitb5Tv-20" value="taxa de IVA" style="ellipse;whiteSpace=wrap;html=1;" vertex="1" parent="1">
          <mxGeometry x="120" y="275" width="80" height="30" as="geometry" />
        </mxCell>
        <mxCell id="HPwKVr45v9yQFBitb5Tv-21" value="" style="endArrow=none;html=1;rounded=0;entryX=0.5;entryY=1;entryDx=0;entryDy=0;exitX=0.5;exitY=0;exitDx=0;exitDy=0;" edge="1" parent="1" source="HPwKVr45v9yQFBitb5Tv-14" target="HPwKVr45v9yQFBitb5Tv-17">
          <mxGeometry width="50" height="50" relative="1" as="geometry">
            <mxPoint x="250" y="230" as="sourcePoint" />
            <mxPoint x="300" y="180" as="targetPoint" />
          </mxGeometry>
        </mxCell>
        <mxCell id="HPwKVr45v9yQFBitb5Tv-22" value="" style="endArrow=none;html=1;rounded=0;entryX=1;entryY=1;entryDx=0;entryDy=0;exitX=0;exitY=0;exitDx=0;exitDy=0;" edge="1" parent="1" source="HPwKVr45v9yQFBitb5Tv-14" target="HPwKVr45v9yQFBitb5Tv-18">
          <mxGeometry width="50" height="50" relative="1" as="geometry">
            <mxPoint x="350" y="220" as="sourcePoint" />
            <mxPoint x="320" y="130" as="targetPoint" />
          </mxGeometry>
        </mxCell>
        <mxCell id="HPwKVr45v9yQFBitb5Tv-23" value="" style="endArrow=none;html=1;rounded=0;entryX=1;entryY=0.5;entryDx=0;entryDy=0;exitX=0;exitY=0.5;exitDx=0;exitDy=0;" edge="1" parent="1" source="HPwKVr45v9yQFBitb5Tv-14" target="HPwKVr45v9yQFBitb5Tv-19">
          <mxGeometry width="50" height="50" relative="1" as="geometry">
            <mxPoint x="290" y="220" as="sourcePoint" />
            <mxPoint x="242" y="211" as="targetPoint" />
          </mxGeometry>
        </mxCell>
        <mxCell id="HPwKVr45v9yQFBitb5Tv-24" value="" style="endArrow=none;html=1;rounded=0;entryX=1;entryY=0;entryDx=0;entryDy=0;exitX=0;exitY=1;exitDx=0;exitDy=0;" edge="1" parent="1" source="HPwKVr45v9yQFBitb5Tv-14" target="HPwKVr45v9yQFBitb5Tv-20">
          <mxGeometry width="50" height="50" relative="1" as="geometry">
            <mxPoint x="350" y="220" as="sourcePoint" />
            <mxPoint x="320" y="130" as="targetPoint" />
          </mxGeometry>
        </mxCell>
        <mxCell id="HPwKVr45v9yQFBitb5Tv-25" value="" style="endArrow=none;html=1;rounded=0;exitX=1;exitY=0.5;exitDx=0;exitDy=0;entryX=0;entryY=0.5;entryDx=0;entryDy=0;" edge="1" parent="1" source="HPwKVr45v9yQFBitb5Tv-14" target="HPwKVr45v9yQFBitb5Tv-26">
          <mxGeometry width="50" height="50" relative="1" as="geometry">
            <mxPoint x="410" y="230" as="sourcePoint" />
            <mxPoint x="460" y="220" as="targetPoint" />
          </mxGeometry>
        </mxCell>
        <mxCell id="HPwKVr45v9yQFBitb5Tv-26" value="Contém" style="rhombus;whiteSpace=wrap;html=1;" vertex="1" parent="1">
          <mxGeometry x="450" y="180" width="80" height="80" as="geometry" />
        </mxCell>
        <mxCell id="HPwKVr45v9yQFBitb5Tv-27" value="" style="endArrow=none;html=1;rounded=0;entryX=0;entryY=0.5;entryDx=0;entryDy=0;exitX=1;exitY=0.5;exitDx=0;exitDy=0;" edge="1" parent="1" source="HPwKVr45v9yQFBitb5Tv-26" target="HPwKVr45v9yQFBitb5Tv-1">
          <mxGeometry width="50" height="50" relative="1" as="geometry">
            <mxPoint x="530" y="220" as="sourcePoint" />
            <mxPoint x="460" y="180" as="targetPoint" />
          </mxGeometry>
        </mxCell>
        <mxCell id="HPwKVr45v9yQFBitb5Tv-28" value="Nome" style="ellipse;whiteSpace=wrap;html=1;" vertex="1" parent="1">
          <mxGeometry x="740" y="480" width="60" height="30" as="geometry" />
        </mxCell>
        <mxCell id="HPwKVr45v9yQFBitb5Tv-29" value="&lt;u&gt;NIF&lt;/u&gt;" style="ellipse;whiteSpace=wrap;html=1;" vertex="1" parent="1">
          <mxGeometry x="759" y="535" width="69.5" height="30" as="geometry" />
        </mxCell>
        <mxCell id="HPwKVr45v9yQFBitb5Tv-30" value="Endereço" style="ellipse;whiteSpace=wrap;html=1;" vertex="1" parent="1">
          <mxGeometry x="735" y="600" width="70" height="30" as="geometry" />
        </mxCell>
        <mxCell id="HPwKVr45v9yQFBitb5Tv-31" value="Número de Fax" style="ellipse;whiteSpace=wrap;html=1;" vertex="1" parent="1">
          <mxGeometry x="657.5" y="640" width="90" height="50" as="geometry" />
        </mxCell>
        <mxCell id="HPwKVr45v9yQFBitb5Tv-32" value="Condições de Pagamento" style="ellipse;whiteSpace=wrap;html=1;" vertex="1" parent="1">
          <mxGeometry x="508.5" y="640" width="110.5" height="50" as="geometry" />
        </mxCell>
        <mxCell id="HPwKVr45v9yQFBitb5Tv-33" value="" style="endArrow=none;html=1;rounded=0;entryX=0.5;entryY=0;entryDx=0;entryDy=0;" edge="1" parent="1" target="HPwKVr45v9yQFBitb5Tv-59">
          <mxGeometry width="50" height="50" relative="1" as="geometry">
            <mxPoint x="610" y="580" as="sourcePoint" />
            <mxPoint x="650" y="570" as="targetPoint" />
          </mxGeometry>
        </mxCell>
        <mxCell id="HPwKVr45v9yQFBitb5Tv-34" value="" style="endArrow=none;html=1;rounded=0;entryX=0;entryY=0;entryDx=0;entryDy=0;exitX=0.5;exitY=1;exitDx=0;exitDy=0;" edge="1" parent="1" source="HPwKVr45v9yQFBitb5Tv-13" target="HPwKVr45v9yQFBitb5Tv-31">
          <mxGeometry width="50" height="50" relative="1" as="geometry">
            <mxPoint x="590" y="530" as="sourcePoint" />
            <mxPoint x="550" y="520" as="targetPoint" />
          </mxGeometry>
        </mxCell>
        <mxCell id="HPwKVr45v9yQFBitb5Tv-35" value="" style="endArrow=none;html=1;rounded=0;entryX=0;entryY=0;entryDx=0;entryDy=0;exitX=1;exitY=1;exitDx=0;exitDy=0;" edge="1" parent="1" source="HPwKVr45v9yQFBitb5Tv-13" target="HPwKVr45v9yQFBitb5Tv-30">
          <mxGeometry width="50" height="50" relative="1" as="geometry">
            <mxPoint x="590" y="590" as="sourcePoint" />
            <mxPoint x="550" y="640" as="targetPoint" />
          </mxGeometry>
        </mxCell>
        <mxCell id="HPwKVr45v9yQFBitb5Tv-36" value="" style="endArrow=none;html=1;rounded=0;exitX=1;exitY=0.5;exitDx=0;exitDy=0;" edge="1" parent="1" source="HPwKVr45v9yQFBitb5Tv-13">
          <mxGeometry width="50" height="50" relative="1" as="geometry">
            <mxPoint x="650" y="590" as="sourcePoint" />
            <mxPoint x="760" y="550" as="targetPoint" />
          </mxGeometry>
        </mxCell>
        <mxCell id="HPwKVr45v9yQFBitb5Tv-37" value="" style="endArrow=none;html=1;rounded=0;entryX=0;entryY=1;entryDx=0;entryDy=0;exitX=1;exitY=0;exitDx=0;exitDy=0;" edge="1" parent="1" source="HPwKVr45v9yQFBitb5Tv-13" target="HPwKVr45v9yQFBitb5Tv-28">
          <mxGeometry width="50" height="50" relative="1" as="geometry">
            <mxPoint x="710" y="590" as="sourcePoint" />
            <mxPoint x="758" y="619" as="targetPoint" />
          </mxGeometry>
        </mxCell>
        <mxCell id="HPwKVr45v9yQFBitb5Tv-38" value="" style="endArrow=none;html=1;rounded=0;" edge="1" parent="1" source="HPwKVr45v9yQFBitb5Tv-26" target="HPwKVr45v9yQFBitb5Tv-39">
          <mxGeometry width="50" height="50" relative="1" as="geometry">
            <mxPoint x="490" y="180" as="sourcePoint" />
            <mxPoint x="510" y="130" as="targetPoint" />
          </mxGeometry>
        </mxCell>
        <mxCell id="HPwKVr45v9yQFBitb5Tv-39" value="Quantidade" style="ellipse;whiteSpace=wrap;html=1;aspect=fixed;" vertex="1" parent="1">
          <mxGeometry x="490" y="80" width="70" height="70" as="geometry" />
        </mxCell>
        <mxCell id="HPwKVr45v9yQFBitb5Tv-42" value="Stock" style="ellipse;whiteSpace=wrap;html=1;aspect=fixed;dashed=1;rotation=0;" vertex="1" parent="1">
          <mxGeometry x="237.22" y="320" width="45.56" height="45.56" as="geometry" />
        </mxCell>
        <mxCell id="HPwKVr45v9yQFBitb5Tv-43" value="" style="endArrow=none;html=1;rounded=0;entryX=1;entryY=0;entryDx=0;entryDy=0;exitX=0.5;exitY=1;exitDx=0;exitDy=0;" edge="1" parent="1" source="HPwKVr45v9yQFBitb5Tv-14" target="HPwKVr45v9yQFBitb5Tv-42">
          <mxGeometry width="50" height="50" relative="1" as="geometry">
            <mxPoint x="320" y="260" as="sourcePoint" />
            <mxPoint x="270" y="360" as="targetPoint" />
          </mxGeometry>
        </mxCell>
        <mxCell id="HPwKVr45v9yQFBitb5Tv-44" value="" style="endArrow=none;html=1;rounded=0;entryX=-0.001;entryY=0.649;entryDx=0;entryDy=0;entryPerimeter=0;exitX=0.884;exitY=0.62;exitDx=0;exitDy=0;exitPerimeter=0;" edge="1" parent="1" source="HPwKVr45v9yQFBitb5Tv-26" target="HPwKVr45v9yQFBitb5Tv-1">
          <mxGeometry width="50" height="50" relative="1" as="geometry">
            <mxPoint x="490" y="360" as="sourcePoint" />
            <mxPoint x="540" y="310" as="targetPoint" />
          </mxGeometry>
        </mxCell>
        <mxCell id="HPwKVr45v9yQFBitb5Tv-45" value="" style="endArrow=none;html=1;rounded=0;entryX=0.5;entryY=1;entryDx=0;entryDy=0;" edge="1" parent="1">
          <mxGeometry width="50" height="50" relative="1" as="geometry">
            <mxPoint x="650" y="340" as="sourcePoint" />
            <mxPoint x="650" y="250" as="targetPoint" />
          </mxGeometry>
        </mxCell>
        <mxCell id="HPwKVr45v9yQFBitb5Tv-46" value="N" style="text;html=1;align=center;verticalAlign=middle;whiteSpace=wrap;rounded=0;" vertex="1" parent="1">
          <mxGeometry x="378" y="197" width="60" height="30" as="geometry" />
        </mxCell>
        <mxCell id="HPwKVr45v9yQFBitb5Tv-47" value="M" style="text;html=1;align=center;verticalAlign=middle;whiteSpace=wrap;rounded=0;" vertex="1" parent="1">
          <mxGeometry x="541" y="198" width="60" height="30" as="geometry" />
        </mxCell>
        <mxCell id="HPwKVr45v9yQFBitb5Tv-48" value="1" style="text;html=1;align=center;verticalAlign=middle;whiteSpace=wrap;rounded=0;" vertex="1" parent="1">
          <mxGeometry x="618" y="497" width="60" height="30" as="geometry" />
        </mxCell>
        <mxCell id="HPwKVr45v9yQFBitb5Tv-49" value="N" style="text;html=1;align=center;verticalAlign=middle;whiteSpace=wrap;rounded=0;" vertex="1" parent="1">
          <mxGeometry x="629" y="245" width="60" height="30" as="geometry" />
        </mxCell>
        <mxCell id="HPwKVr45v9yQFBitb5Tv-50" value="Tipo de Fornecedor" style="rounded=0;whiteSpace=wrap;html=1;" vertex="1" parent="1">
          <mxGeometry x="150" y="520" width="120" height="60" as="geometry" />
        </mxCell>
        <mxCell id="HPwKVr45v9yQFBitb5Tv-51" value="Tem" style="rhombus;whiteSpace=wrap;html=1;" vertex="1" parent="1">
          <mxGeometry x="368" y="510" width="80" height="80" as="geometry" />
        </mxCell>
        <mxCell id="HPwKVr45v9yQFBitb5Tv-52" value="" style="endArrow=none;html=1;rounded=0;exitX=1;exitY=0.5;exitDx=0;exitDy=0;entryX=0;entryY=0.5;entryDx=0;entryDy=0;" edge="1" parent="1" source="HPwKVr45v9yQFBitb5Tv-50" target="HPwKVr45v9yQFBitb5Tv-51">
          <mxGeometry width="50" height="50" relative="1" as="geometry">
            <mxPoint x="490" y="530" as="sourcePoint" />
            <mxPoint x="540" y="480" as="targetPoint" />
          </mxGeometry>
        </mxCell>
        <mxCell id="HPwKVr45v9yQFBitb5Tv-53" value="" style="endArrow=none;html=1;rounded=0;exitX=1;exitY=0.5;exitDx=0;exitDy=0;entryX=0;entryY=0.5;entryDx=0;entryDy=0;" edge="1" parent="1" source="HPwKVr45v9yQFBitb5Tv-51" target="HPwKVr45v9yQFBitb5Tv-13">
          <mxGeometry width="50" height="50" relative="1" as="geometry">
            <mxPoint x="280" y="560" as="sourcePoint" />
            <mxPoint x="378" y="560" as="targetPoint" />
          </mxGeometry>
        </mxCell>
        <mxCell id="HPwKVr45v9yQFBitb5Tv-54" value="&lt;u&gt;Id&lt;/u&gt;" style="ellipse;whiteSpace=wrap;html=1;" vertex="1" parent="1">
          <mxGeometry x="100" y="600" width="40" height="30" as="geometry" />
        </mxCell>
        <mxCell id="HPwKVr45v9yQFBitb5Tv-55" value="Designação" style="ellipse;whiteSpace=wrap;html=1;" vertex="1" parent="1">
          <mxGeometry x="20" y="500" width="90" height="40" as="geometry" />
        </mxCell>
        <mxCell id="HPwKVr45v9yQFBitb5Tv-56" value="" style="endArrow=none;html=1;rounded=0;entryX=1;entryY=0.5;entryDx=0;entryDy=0;exitX=0;exitY=0.25;exitDx=0;exitDy=0;" edge="1" parent="1" source="HPwKVr45v9yQFBitb5Tv-50" target="HPwKVr45v9yQFBitb5Tv-55">
          <mxGeometry width="50" height="50" relative="1" as="geometry">
            <mxPoint x="167" y="559" as="sourcePoint" />
            <mxPoint x="110" y="520" as="targetPoint" />
          </mxGeometry>
        </mxCell>
        <mxCell id="HPwKVr45v9yQFBitb5Tv-57" value="" style="endArrow=none;html=1;rounded=0;entryX=1;entryY=0;entryDx=0;entryDy=0;exitX=0.25;exitY=1;exitDx=0;exitDy=0;" edge="1" parent="1" source="HPwKVr45v9yQFBitb5Tv-50" target="HPwKVr45v9yQFBitb5Tv-54">
          <mxGeometry width="50" height="50" relative="1" as="geometry">
            <mxPoint x="630" y="540" as="sourcePoint" />
            <mxPoint x="573" y="501" as="targetPoint" />
          </mxGeometry>
        </mxCell>
        <mxCell id="HPwKVr45v9yQFBitb5Tv-59" value="" style="ellipse;whiteSpace=wrap;html=1;fillColor=none;" vertex="1" parent="1">
          <mxGeometry x="498.5" y="635" width="130.5" height="60" as="geometry" />
        </mxCell>
        <mxCell id="HPwKVr45v9yQFBitb5Tv-60" value="" style="endArrow=none;html=1;rounded=0;entryX=-0.012;entryY=0.639;entryDx=0;entryDy=0;entryPerimeter=0;exitX=0.912;exitY=0.605;exitDx=0;exitDy=0;exitPerimeter=0;" edge="1" parent="1" source="HPwKVr45v9yQFBitb5Tv-51" target="HPwKVr45v9yQFBitb5Tv-13">
          <mxGeometry width="50" height="50" relative="1" as="geometry">
            <mxPoint x="430" y="580" as="sourcePoint" />
            <mxPoint x="480" y="530" as="targetPoint" />
          </mxGeometry>
        </mxCell>
        <mxCell id="HPwKVr45v9yQFBitb5Tv-61" value="N" style="text;html=1;align=center;verticalAlign=middle;whiteSpace=wrap;rounded=0;" vertex="1" parent="1">
          <mxGeometry x="540" y="527" width="60" height="30" as="geometry" />
        </mxCell>
        <mxCell id="HPwKVr45v9yQFBitb5Tv-62" value="1" style="text;html=1;align=center;verticalAlign=middle;whiteSpace=wrap;rounded=0;" vertex="1" parent="1">
          <mxGeometry x="250" y="527" width="60" height="30" as="geometry" />
        </mxCell>
      </root>
    </mxGraphModel>
  </diagram>
</mxfile>
